<?xml version="1.0" encoding="utf-8"?>
<!-- Generator: Adobe Illustrator 21.1.0, SVG Export Plug-In . SVG Version: 6.00 Build 0)  -->
<svg version="1.1" baseProfile="tiny" id="Calque_1"
	 xmlns="http://www.w3.org/2000/svg" xmlns:xlink="http://www.w3.org/1999/xlink" x="0px" y="0px" viewBox="0 0 255 47"
	 xml:space="preserve">
<path fill="#BC1525" d="M233.3,35.4V2.9h-9.7v41.1H253v-8.6H233.3z M200.9,35.4V2.9h-9.7v41.1h29.4v-8.6H200.9z M153.6,2.9v41.1
	h31.5v-8.6h-21.8v-8.3h20.6v-8.6h-20.6v-7.2h21.8V2.9H153.6z M127.6,11.4v32.6h9.7V11.4h13.2V2.9h-36.1v8.5H127.6z M106.2,23.3
	c0,12.4-5.9,18.6-13.8,18.6c-7.9,0-13.8-6.2-13.8-18.6c0-12.4,5.8-18.5,13.8-18.5C100.3,4.7,106.2,10.9,106.2,23.3 M92.3,44.7
	c11.6,0,19.7-7.9,19.7-21.4S104,1.9,92.4,1.9s-19.7,8.5-19.7,21.4S80.4,44.7,92.3,44.7 M50.7,5.5c6.7,0,10.9,2.5,10.9,8.7
	c0,6.2-4.1,8.9-10.9,8.9h-5.2V5.5H50.7z M35.5,4.8L38.8,5c1.2,0.1,1.6,0.3,1.6,1.3v34.2c0,1-0.4,1.2-1.6,1.3L35.5,42v1.9h15.6v-2
	l-4-0.2c-1.1-0.1-1.6-0.3-1.6-1.3V25.8h4.2c1.1,0,2.2-0.1,3.3-0.1L60.9,39l2.8,4.9h8.8V42L71,42c-2-0.1-2.7-1-4-3l-8.6-14.3
	c5.4-1.6,8.7-4.9,8.7-10.8c0-8.4-7.2-11.1-17.3-11.1c-2.7,0-14.3,0.1-14.3,0.1V4.8z M17.6,5.4c6.7,0,10.9,2.8,10.9,9.6
	S24.4,25,17.6,25h-5V5.4H17.6z M16.8,2.8c-2.7,0-14.2,0.1-14.2,0.1v1.9L5.8,5C7,5.1,7.4,5.4,7.4,6.3v34.2c0,1-0.4,1.2-1.6,1.3
	L2.6,42v1.9h16.1v-1.9l-4.5-0.2c-1.1-0.1-1.6-0.6-1.6-1.3V27.6h4.1c10.1,0,17.3-3.7,17.3-12.8C34.1,5.7,26.9,2.8,16.8,2.8"/>
</svg>
